<svg xmlns="http://www.w3.org/2000/svg" viewBox="0 0 320 50">
  <defs>
    <linearGradient id="textgrad" x1="0%" y1="0%" x2="100%" y2="0%">
      <stop offset="0%" style="stop-color:#0891b2"/>
      <stop offset="100%" style="stop-color:#0d9488"/>
    </linearGradient>
  </defs>
  <!-- Fish icon -->
  <g transform="translate(2, 5) scale(1.7)" fill="none" stroke="#0891b2" stroke-width="2" stroke-linecap="round" stroke-linejoin="round">
    <path d="M6.5 12c.94-3.46 4.94-6 8.5-6 3.56 0 6.06 2.54 7 6-.94 3.46-3.44 6-7 6-3.56 0-7.56-2.54-8.5-6Z"/>
    <path d="M18 12v.5"/>
    <path d="M16 10c1 0 2 1 2 2s-1 2-2 2"/>
    <path d="M2 12h3"/>
    <path d="M5 12 Q2 8 3 5"/>
    <path d="M5 12 Q2 16 3 19"/>
  </g>
  <!-- Text -->
  <text x="52" y="34" font-family="Inter, system-ui, -apple-system, sans-serif" font-size="24" font-weight="700" fill="url(#textgrad)">FishFinder</text>
</svg>