<svg xmlns="http://www.w3.org/2000/svg" viewBox="0 0 512 512">
  <defs>
    <linearGradient id="bg" x1="0%" y1="0%" x2="100%" y2="100%">
      <stop offset="0%" style="stop-color:#0891b2"/>
      <stop offset="100%" style="stop-color:#0d9488"/>
    </linearGradient>
  </defs>
  <rect width="512" height="512" rx="108" fill="url(#bg)"/>
  <g transform="translate(46, 46) scale(17.5)" fill="none" stroke="white" stroke-width="2" stroke-linecap="round" stroke-linejoin="round">
    <path d="M6.5 12c.94-3.46 4.94-6 8.5-6 3.56 0 6.06 2.54 7 6-.94 3.46-3.44 6-7 6-3.56 0-7.56-2.54-8.5-6Z"/>
    <path d="M18 12v.5"/>
    <path d="M16 10c1 0 2 1 2 2s-1 2-2 2"/>
    <path d="M2 12h3"/>
    <path d="M5 12 Q2 8 3 5"/>
    <path d="M5 12 Q2 16 3 19"/>
  </g>
</svg>